<?xml version="1.0" encoding="UTF-8" standalone="no"?>
<!-- Created with Inkscape (http://www.inkscape.org/) -->

<svg
   version="1.1"
   id="svg1"
   width="1024"
   height="1024"
   viewBox="0 0 1024 1024"
   xmlns="http://www.w3.org/2000/svg"
   xmlns:svg="http://www.w3.org/2000/svg">
  <defs
     id="defs1" />
  <g
     id="g1">
    <path
       style="fill:#387dc7;fill-opacity:1"
       d="m 508.41844,765.05268 c -3.40226,-1.41155 -7.29967,-6.83267 -8.89259,-12.36918 -2.26592,-7.87561 -3.76014,-19.92066 -2.56301,-20.66054 1.22235,-0.75545 30.13629,-0.25717 30.92642,0.53297 0.94143,0.94142 -3.60331,21.27088 -5.62692,25.17029 -3.11756,6.0074 -9.2284,9.24137 -13.8439,7.32646 z M 494.42268,718.8749 C 493.87633,717.99088 491,681.89387 491,675.92136 V 671 h 21 21 l -0.10271,6.25 c -0.0565,3.4375 -0.61899,14.26764 -1.25,24.06697 l -1.14729,17.81696 -17.84407,0.18534 c -9.81423,0.10194 -18.0192,-0.098 -18.23325,-0.44437 z M 490.62694,648.75 c -0.30785,-5.0875 -0.7922,-16.3375 -1.07635,-25 L 489.03397,608 h 23.03988 23.03989 l -0.63664,23.75 c -0.35015,13.0625 -0.81162,24.3125 -1.02548,25 -0.29485,0.94782 -5.45051,1.25 -21.32691,1.25 h -20.93806 z m -0.6306,-64 c -0.002,-5.6375 -0.29701,-16.6625 -0.65555,-24.5 L 488.6889,546 H 511.84445 535 V 570.5 595 H 512.5 490 Z m 0.34474,-72 c 0.36118,-10.0375 1.16296,-23.1041 1.78174,-29.03689 l 1.12505,-10.78689 -3.87394,-3.42148 c -2.13066,-1.88182 -4.25389,-3.44022 -4.71829,-3.46311 -0.4644,-0.0229 -4.5144,2.60309 -9,5.83553 -19.74767,14.23067 -41.82423,27.4334 -58.97027,35.26678 -54.03289,24.68557 -116.85412,29.40262 -178.18537,13.37939 -29.21597,-7.63289 -46.71647,-18.09246 -53.57236,-32.01874 -2.81178,-5.71154 -3.11445,-7.16116 -2.75822,-13.21007 0.52541,-8.92137 3.5943,-14.90873 11.36983,-22.18235 13.80049,-12.90969 37.01102,-21.10468 80.96075,-28.585 8.25,-1.40416 16.125,-2.81536 17.5,-3.13599 2.94423,-0.68655 4.34391,-0.0603 -20,-8.94842 -36.56534,-13.35026 -73.61313,-34.2957 -91.0125,-51.45509 -19.21145,-18.94648 -18.47606,-42.82646 1.68267,-54.64026 18.90732,-11.08043 50.54148,-10.70326 97.36761,1.16091 38.38868,9.72639 134.4593,39.92557 177.88505,55.917 6.83255,2.51607 13.01148,4.57468 13.73095,4.57468 0.71946,0 1.55241,-1.2375 1.85099,-2.75 6.04163,-30.60485 18.8331,-44.41727 39.84672,-43.02706 18.16315,1.20164 28.51152,12.01651 35.07496,36.65614 1.37411,5.1585 2.62779,9.48887 2.78596,9.62306 0.15818,0.13419 4.33759,-1.28635 9.28759,-3.15675 32.03482,-12.10466 132.13214,-44.02864 173.87635,-55.45429 59.76094,-16.35694 99.42638,-15.25126 116.04696,3.23482 8.28593,9.21595 9.80396,22.08917 4.05714,34.40551 -10.12103,21.69098 -57.39643,50.44695 -113.37333,68.96101 -7.07714,2.34073 -10.86524,4.04492 -10,4.4988 0.76608,0.40186 6.56788,1.49299 12.89288,2.42472 66.08336,9.73468 98.21205,26.57854 98.39359,51.58404 0.085,11.71163 -5.84195,20.58987 -19.98719,29.93957 -24.64221,16.28797 -71.35087,26.28147 -115.4064,24.69165 -54.27247,-1.95852 -97.98421,-16.87151 -148.70595,-50.73353 -5.93673,-3.96338 -12.51904,-8.55425 -14.62737,-10.20193 l -3.83331,-2.99579 -3.50998,3.50997 -3.50998,3.50998 1.0933,15.79525 C 534.50802,497.20256 535,510.31558 535,517.65521 V 531 h -22.65781 -22.6578 z M 328,511.95866 c 42.33997,-3.80876 79.62949,-17.17715 117.81353,-42.23643 11.27593,-7.40014 25.80492,-17.63015 29.52829,-20.79119 0.463,-0.39308 -0.0844,-4.47586 -1.21648,-9.07286 -1.13207,-4.597 -2.35637,-10.72068 -2.72066,-13.60818 -0.57298,-4.54172 -0.95914,-5.25 -2.86235,-5.25 -1.21001,0 -14.08953,1.34067 -28.62117,2.97926 -14.53164,1.6386 -44.87116,4.80284 -67.42116,7.03164 -112.96241,11.16504 -150.06865,18.98447 -166.6278,35.11359 -4.37797,4.26427 -4.8722,5.19372 -4.8722,9.1627 0,5.91697 2.92163,10.03136 10.93384,15.39759 22.9778,15.38953 75.15856,24.9538 116.06616,21.27388 z m 405.69553,-0.007 c 52.5356,-4.29957 93.92577,-22.42031 89.28529,-39.08935 C 820.03348,462.27559 798.69941,451.97742 766.5,445.59885 744.88819,441.31764 710.34309,436.80218 670,432.98514 653.16817,431.39261 597.62335,425.27282 574.35093,422.44677 563.26894,421.10105 553.96334,420 553.67183,420 c -0.29152,0 -1.02644,2.5875 -1.63315,5.75 -0.60671,3.1625 -2.01537,9.55288 -3.13035,14.20085 l -2.02723,8.45086 2.30945,1.79244 c 1.2702,0.98585 7.05092,5.1433 12.84606,9.23878 37.3214,26.3754 72.94689,42.15646 110.88877,49.12049 23.03511,4.22797 39.43198,5.14499 60.77015,3.39865 z M 415.76802,408.02652 c 16.5677,-1.89374 48.96482,-6.60083 52.38418,-7.61107 2.3835,-0.7042 2.9744,-9.28885 0.78975,-11.4735 -2.50516,-2.50516 -56.83518,-22.29939 -99.5188,-36.25799 -34.35063,-11.23351 -82.32034,-25.03932 -107.96495,-31.0726 -38.81825,-9.13258 -68.85966,-6.82184 -74.82807,5.75566 -2.09166,4.40783 -2.02971,6.15547 0.40868,11.52981 4.72336,10.41054 24.54118,25.52136 51.59928,39.34375 36.63447,18.71438 71.48808,29.07863 106.86191,31.77699 16.17965,1.23421 50.5786,0.25951 70.26802,-1.99105 z M 676,409.97187 c 18.70449,-1.41776 31.93372,-3.50357 48.28428,-7.61283 39.80963,-10.00506 82.26898,-30.70943 102.91151,-50.18255 9.6156,-9.07087 12.30216,-14.01813 11.9149,-21.94118 -0.18136,-3.71052 -6.03298,-9.04528 -12.61069,-11.49682 -5.3858,-2.0073 -7.79141,-2.23288 -23.5,-2.20363 -20.24575,0.0377 -30.93367,1.69257 -58.5,9.05795 -46.24888,12.35712 -121.87103,36.77458 -171.38442,55.33793 C 551.5965,388.99857 553,388.08253 553,394.05993 c 0,4.30335 0.32008,5.11126 2.32732,5.87442 3.54219,1.34674 50.45339,7.85755 65.17268,9.04533 26.31382,2.1234 37.85419,2.32971 55.5,0.99219 z M 468.6275,320.53183 c -5.93195,-2.11449 -10.82228,-6.63508 -14.1275,-13.05937 -2.77749,-5.39856 -3,-6.61665 -3,-16.42278 0,-9.98898 0.19022,-10.97813 3.3426,-17.38151 5.44227,-11.05482 15.55544,-16.47193 28.77093,-15.41112 15.25842,1.2248 23.27369,10.24543 23.31813,26.24295 0.0337,12.12564 -3.02519,20.91649 -10.05839,28.90663 -6.61382,7.51369 -18.64307,10.54816 -28.24577,7.1252 z m 68.25478,0.14852 c -12.01853,-4.49723 -19.36311,-15.09966 -20.58896,-29.72166 -0.88786,-10.59033 1.70434,-19.05159 7.6618,-25.00905 12.08613,-12.08612 33.631,-10.07013 42.49835,3.97665 10.19441,16.14899 5.45721,40.36179 -9.48819,48.49609 -6.09156,3.31544 -14.67726,4.28075 -20.083,2.25797 z"
       id="path1" />
  </g>
</svg>
